<svg width="32" height="32" viewBox="0 0 32 32" fill="none" xmlns="http://www.w3.org/2000/svg">
<path d="M7.11084 9.59852H12.7997V7.46519C12.8004 7.0883 12.9505 6.72635 13.2172 6.45968C13.4831 6.19372 13.8451 6.04368 14.222 6.04297H24.1775C24.5544 6.04368 24.9164 6.19301 25.183 6.45968C25.4497 6.72635 25.599 7.0883 25.5997 7.46519V24.5319C25.599 24.9087 25.449 25.2707 25.183 25.5367C24.9164 25.8033 24.5544 25.9534 24.1775 25.9541H7.11084C6.73395 25.9534 6.37271 25.8033 6.10604 25.5367C5.83937 25.27 5.68933 24.9087 5.68862 24.5319V11.0207C5.68933 10.6439 5.83937 10.2819 6.10604 10.0152C6.372 9.74928 6.73395 9.59924 7.11084 9.59852ZM17.7775 24.5319H20.622V20.9763H17.7775V24.5319ZM14.222 24.5319H16.3553V20.9763C16.356 20.5994 16.506 20.2375 16.7727 19.9715C17.0387 19.7048 17.4006 19.5548 17.7775 19.5541H20.622C20.9988 19.5548 21.3608 19.7048 21.6275 19.9715C21.8934 20.2375 22.0435 20.5994 22.0442 20.9763V24.5319H24.1775L24.1782 7.46519H14.222V24.5319ZM7.11084 24.5319H12.7997V11.0207H7.11084V24.5319ZM16.3553 15.9985C16.3553 16.1393 16.3972 16.2766 16.4755 16.3939C16.553 16.5105 16.6646 16.6015 16.794 16.6556C16.9242 16.7096 17.0671 16.7231 17.2051 16.6961C17.343 16.6684 17.4696 16.6008 17.5692 16.5013C17.6687 16.4017 17.7363 16.2751 17.764 16.1372C17.791 15.9992 17.7775 15.8563 17.7235 15.7262C17.6694 15.5967 17.5784 15.4851 17.4618 15.4076C17.3444 15.3294 17.2072 15.2874 17.0664 15.2874C16.878 15.2874 16.6966 15.3621 16.5636 15.4958C16.43 15.6287 16.3553 15.8101 16.3553 15.9985ZM16.3553 13.1541C16.3553 13.2949 16.3972 13.4321 16.4755 13.5495C16.553 13.6661 16.6646 13.7571 16.794 13.8111C16.9242 13.8652 17.0671 13.8787 17.2051 13.8517C17.343 13.8239 17.4696 13.7564 17.5692 13.6568C17.6687 13.5573 17.7363 13.4307 17.764 13.2927C17.791 13.1548 17.7775 13.0119 17.7235 12.8817C17.6694 12.7523 17.5784 12.6407 17.4618 12.5631C17.3444 12.4849 17.2072 12.443 17.0664 12.443C16.878 12.443 16.6966 12.5176 16.5636 12.6513C16.43 12.7843 16.3553 12.9656 16.3553 13.1541ZM16.3553 10.3096C16.3553 10.4504 16.3972 10.5877 16.4755 10.705C16.553 10.8216 16.6646 10.9127 16.794 10.9667C16.9242 11.0207 17.0671 11.0343 17.2051 11.0072C17.343 10.9795 17.4696 10.9119 17.5692 10.8124C17.6687 10.7128 17.7363 10.5863 17.764 10.4483C17.791 10.3103 17.7775 10.1674 17.7235 10.0373C17.6694 9.90786 17.5784 9.79621 17.4618 9.7187C17.3444 9.64048 17.2072 9.59852 17.0664 9.59852C16.878 9.59852 16.6966 9.67319 16.5636 9.80688C16.43 9.93986 16.3553 10.1212 16.3553 10.3096ZM20.622 15.9985C20.622 16.1393 20.6639 16.2766 20.7421 16.3939C20.8196 16.5105 20.9313 16.6015 21.0607 16.6556C21.1908 16.7096 21.3338 16.7231 21.4717 16.6961C21.6097 16.6684 21.7363 16.6008 21.8358 16.5013C21.9354 16.4017 22.0029 16.2751 22.0307 16.1372C22.0577 15.9992 22.0442 15.8563 21.9901 15.7262C21.9361 15.5967 21.8451 15.4851 21.7284 15.4076C21.6111 15.3294 21.4739 15.2874 21.3331 15.2874C21.1446 15.2874 20.9633 15.3621 20.8303 15.4958C20.6966 15.6287 20.622 15.8101 20.622 15.9985ZM20.622 13.1541C20.622 13.2949 20.6639 13.4321 20.7421 13.5495C20.8196 13.6661 20.9313 13.7571 21.0607 13.8111C21.1908 13.8652 21.3338 13.8787 21.4717 13.8517C21.6097 13.8239 21.7363 13.7564 21.8358 13.6568C21.9354 13.5573 22.0029 13.4307 22.0307 13.2927C22.0577 13.1548 22.0442 13.0119 21.9901 12.8817C21.9361 12.7523 21.8451 12.6407 21.7284 12.5631C21.6111 12.4849 21.4739 12.443 21.3331 12.443C21.1446 12.443 20.9633 12.5176 20.8303 12.6513C20.6966 12.7843 20.622 12.9656 20.622 13.1541ZM20.622 10.3096C20.622 10.4504 20.6639 10.5877 20.7421 10.705C20.8196 10.8216 20.9313 10.9127 21.0607 10.9667C21.1908 11.0207 21.3338 11.0343 21.4717 11.0072C21.6097 10.9795 21.7363 10.9119 21.8358 10.8124C21.9354 10.7128 22.0029 10.5863 22.0307 10.4483C22.0577 10.3103 22.0442 10.1674 21.9901 10.0373C21.9361 9.90786 21.8451 9.79621 21.7284 9.7187C21.6111 9.64048 21.4739 9.59852 21.3331 9.59852C21.1446 9.59852 20.9633 9.67319 20.8303 9.80688C20.6966 9.93986 20.622 10.1212 20.622 10.3096Z" fill="#A540F3"/>
</svg>
