<svg width="32" height="32" viewBox="0 0 32 32" fill="none" xmlns="http://www.w3.org/2000/svg">
<path d="M27.0231 22.7558H12.7113C12.5534 23.3659 12.1965 23.9064 11.698 24.2925C11.1995 24.6786 10.5872 24.8877 9.95647 24.8877C9.32571 24.8877 8.71344 24.6786 8.21496 24.2925C7.71647 23.9064 7.35949 23.3659 7.20162 22.7558H5.6898C5.33069 22.7558 4.98509 22.6207 4.72198 22.376C4.45887 22.1321 4.29816 21.7979 4.27113 21.4402L4.26758 21.3336V10.8162C4.26758 8.82511 5.82349 7.19666 7.77762 7.11488L7.93265 7.11133H20.5136C22.4884 7.11133 24.0941 8.68857 24.1758 10.6598L24.1787 10.8162V21.3336H25.6009V19.9113H27.0231V22.7558ZM9.95647 20.6224C9.57958 20.6224 9.21762 20.7725 8.95096 21.0391C8.68429 21.3058 8.53425 21.6678 8.53425 22.0447C8.53425 22.4216 8.68429 22.7835 8.95096 23.0502C9.21762 23.3168 9.57958 23.4669 9.95647 23.4669C10.3334 23.4669 10.6953 23.3168 10.962 23.0502C11.2286 22.7835 11.3787 22.4216 11.3787 22.0447C11.3787 21.6678 11.2286 21.3058 10.962 21.0391C10.6953 20.7725 10.3334 20.6224 9.95647 20.6224ZM20.5136 8.53355H7.93265C6.73869 8.53355 5.75949 9.48431 5.69336 10.6868L5.6898 10.8169V21.3336H7.20162C7.35949 20.7234 7.71647 20.183 8.21496 19.7968C8.71344 19.4107 9.32571 19.2016 9.95647 19.2016C10.5872 19.2016 11.1995 19.4107 11.698 19.7968C12.1965 20.183 12.5534 20.7234 12.7113 21.3336H14.2231V12.2079C14.2231 11.3936 14.8546 10.7273 15.6539 10.6704L15.7641 10.6669H19.0822C19.8964 10.6669 20.5627 11.2984 20.6196 12.0976L20.6231 12.2079V21.3336H22.7565V10.8162C22.7565 9.59737 21.8178 8.60466 20.6409 8.53711L20.5136 8.53355ZM19.0822 12.0891H15.7641C15.7392 12.0891 15.715 12.0969 15.6944 12.1112C15.6738 12.1261 15.6589 12.1467 15.651 12.1702L15.6454 12.2079V21.3336H19.2009V12.2079C19.2009 12.183 19.1931 12.1588 19.1789 12.1382C19.1639 12.1183 19.1433 12.1026 19.1198 12.0948L19.0822 12.0891ZM11.3787 10.6669C11.7378 10.6669 12.0834 10.802 12.3465 11.0459C12.6089 11.2905 12.7703 11.6248 12.7974 11.9824L12.8009 12.0891V14.9336C12.8009 15.2927 12.6658 15.6383 12.4219 15.9014C12.1773 16.1638 11.843 16.3252 11.4854 16.3522L11.3787 16.3558H8.53425C8.17513 16.3558 7.82953 16.2207 7.56642 15.9768C7.30331 15.7321 7.1426 15.3979 7.11558 15.0402L7.11202 14.9336V12.0891C7.11202 11.73 7.24713 11.3844 7.49104 11.1213C7.73567 10.8582 8.06989 10.6975 8.42758 10.6704L8.53425 10.6669H11.3787ZM11.3787 12.0891H8.53425V14.9336H11.3787V12.0891Z" fill="#A540F3"/>
</svg>
