<svg width="32" height="32" viewBox="0 0 32 32" fill="none" xmlns="http://www.w3.org/2000/svg">
<path d="M10.3117 6.04297C12.0283 6.04297 13.4299 7.39479 13.5081 9.09221L13.5117 9.24297V12.5838L17.3552 9.7379C17.5885 9.5651 17.9007 9.55372 18.1439 9.6995L18.2228 9.75426L22.045 12.8127V10.3096H23.4672V13.9505L25.3339 15.4431L24.445 16.5539L23.4672 15.771L23.4665 18.843H24.8895C25.2543 18.843 25.5551 19.1175 25.5956 19.4709L25.6006 19.5541V25.243C25.6006 25.6078 25.3261 25.9086 24.9727 25.9491L24.8895 25.9541H5.68945V24.5319H11.0548L12.2992 23.1096H5.68945V21.6874H13.5117V21.7244L14.7881 20.2652H5.68945V18.843H7.11168V9.24297C7.11168 7.47586 8.54456 6.04297 10.3117 6.04297ZM19.0548 20.2652H16.6783L12.9449 24.5319H15.3215L19.0548 20.2652ZM24.1783 21.4456L21.4783 24.5319H24.1783V21.4456ZM23.3215 20.2652H20.9449L17.2116 24.5319H19.5881L23.3215 20.2652ZM22.045 14.6332L17.7613 11.2063L13.5117 14.3537V18.843H15.6443L15.645 15.9985C15.645 15.6337 15.9195 15.3329 16.2729 15.2924L16.3561 15.2874H19.2006C19.5654 15.2874 19.8662 15.5619 19.9067 15.9153L19.9117 15.9985L19.911 18.843H22.0443L22.045 14.6332ZM10.3117 7.46519C9.36945 7.46519 8.5979 8.19906 8.53745 9.12635L8.5339 9.24297V18.843H12.0895V9.24297C12.0895 8.26092 11.2937 7.46519 10.3117 7.46519ZM18.4895 16.7096H17.0672V18.843H18.4895V16.7096Z" fill="#A540F3"/>
</svg>
