<svg width="32" height="32" viewBox="0 0 32 32" fill="none" xmlns="http://www.w3.org/2000/svg">
<path d="M24.1783 9.59852H18.4895V7.46519C18.4887 7.0883 18.3387 6.72635 18.072 6.45968C17.8061 6.19372 17.4441 6.04368 17.0672 6.04297H7.11168C6.73479 6.04368 6.37283 6.19301 6.10616 6.45968C5.8395 6.72635 5.69016 7.0883 5.68945 7.46519V24.5319C5.69016 24.9087 5.84021 25.2707 6.10616 25.5367C6.37283 25.8033 6.73479 25.9534 7.11168 25.9541H24.1783C24.5552 25.9534 24.9165 25.8033 25.1831 25.5367C25.4498 25.27 25.5999 24.9087 25.6006 24.5319V11.0207C25.5999 10.6439 25.4498 10.2819 25.1831 10.0152C24.9172 9.74928 24.5552 9.59924 24.1783 9.59852ZM13.5117 24.5319H10.6672V20.9763H13.5117V24.5319ZM17.0672 24.5319H14.9339V20.9763C14.9332 20.5994 14.7831 20.2375 14.5165 19.9715C14.2505 19.7048 13.8886 19.5548 13.5117 19.5541H10.6672C10.2903 19.5548 9.92839 19.7048 9.66172 19.9715C9.39576 20.2375 9.24572 20.5994 9.24501 20.9763V24.5319H7.11168L7.11096 7.46519H17.0672V24.5319ZM24.1783 24.5319H18.4895V11.0207H24.1783V24.5319ZM22.045 15.9985C22.045 16.1393 22.0031 16.2766 21.9248 16.3939C21.8473 16.5105 21.7357 16.6015 21.6063 16.6556C21.4761 16.7096 21.3332 16.7231 21.1952 16.6961C21.0573 16.6684 20.9307 16.6008 20.8311 16.5013C20.7316 16.4017 20.664 16.2751 20.6363 16.1372C20.6093 15.9992 20.6228 15.8563 20.6768 15.7262C20.7309 15.5967 20.8219 15.4851 20.9385 15.4076C21.0559 15.3294 21.1931 15.2874 21.3339 15.2874C21.5223 15.2874 21.7037 15.3621 21.8367 15.4958C21.9703 15.6287 22.045 15.8101 22.045 15.9985ZM20.6228 13.1541C20.6228 13.0133 20.6647 12.876 20.743 12.7587C20.8205 12.6421 20.9321 12.5511 21.0615 12.497C21.1917 12.443 21.3346 12.4295 21.4726 12.4565C21.6105 12.4842 21.7371 12.5518 21.8367 12.6513C21.9362 12.7509 22.0038 12.8775 22.0315 13.0154C22.0585 13.1534 22.045 13.2963 21.991 13.4264C21.9369 13.5559 21.8459 13.6675 21.7293 13.745C21.6119 13.8232 21.4747 13.8652 21.3339 13.8652C21.1455 13.8652 20.9641 13.7905 20.8311 13.6568C20.6975 13.5239 20.6228 13.3425 20.6228 13.1541ZM14.9339 15.9985C14.9339 16.1393 14.8919 16.2766 14.8137 16.3939C14.7362 16.5105 14.6246 16.6015 14.4951 16.6556C14.365 16.7096 14.2221 16.7231 14.0841 16.6961C13.9462 16.6684 13.8196 16.6008 13.72 16.5013C13.6205 16.4017 13.5529 16.2751 13.5252 16.1372C13.4982 15.9992 13.5117 15.8563 13.5657 15.7262C13.6198 15.5967 13.7108 15.4851 13.8274 15.4076C13.9447 15.3294 14.082 15.2874 14.2228 15.2874C14.4112 15.2874 14.5926 15.3621 14.7255 15.4958C14.8592 15.6287 14.9339 15.8101 14.9339 15.9985ZM14.9339 13.1541C14.9339 13.2949 14.8919 13.4321 14.8137 13.5495C14.7362 13.6661 14.6246 13.7571 14.4951 13.8111C14.365 13.8652 14.2221 13.8787 14.0841 13.8517C13.9462 13.8239 13.8196 13.7564 13.72 13.6568C13.6205 13.5573 13.5529 13.4307 13.5252 13.2927C13.4982 13.1548 13.5117 13.0119 13.5657 12.8817C13.6198 12.7523 13.7108 12.6407 13.8274 12.5631C13.9447 12.4849 14.082 12.443 14.2228 12.443C14.4112 12.443 14.5926 12.5176 14.7255 12.6513C14.8592 12.7843 14.9339 12.9656 14.9339 13.1541ZM14.9339 10.3096C14.9339 10.4504 14.8919 10.5877 14.8137 10.705C14.7362 10.8216 14.6246 10.9127 14.4951 10.9667C14.365 11.0207 14.2221 11.0343 14.0841 11.0072C13.9462 10.9795 13.8196 10.9119 13.72 10.8124C13.6205 10.7128 13.5529 10.5863 13.5252 10.4483C13.4982 10.3103 13.5117 10.1674 13.5657 10.0373C13.6198 9.90786 13.7108 9.79621 13.8274 9.7187C13.9447 9.64048 14.082 9.59852 14.2228 9.59852C14.4112 9.59852 14.5926 9.67319 14.7255 9.80688C14.8592 9.93986 14.9339 10.1212 14.9339 10.3096ZM10.6672 15.9985C10.6672 16.1393 10.6253 16.2766 10.5471 16.3939C10.4695 16.5105 10.3579 16.6015 10.2285 16.6556C10.0983 16.7096 9.95541 16.7231 9.81745 16.6961C9.6795 16.6684 9.55292 16.6008 9.45336 16.5013C9.35381 16.4017 9.28625 16.2751 9.25852 16.1372C9.2315 15.9992 9.24501 15.8563 9.29905 15.7262C9.3531 15.5967 9.44412 15.4851 9.56074 15.4076C9.67808 15.3294 9.81532 15.2874 9.95612 15.2874C10.1446 15.2874 10.3259 15.3621 10.4589 15.4958C10.5926 15.6287 10.6672 15.8101 10.6672 15.9985ZM10.6672 13.1541C10.6672 13.2949 10.6253 13.4321 10.5471 13.5495C10.4695 13.6661 10.3579 13.7571 10.2285 13.8111C10.0983 13.8652 9.95541 13.8787 9.81745 13.8517C9.6795 13.8239 9.55292 13.7564 9.45336 13.6568C9.35381 13.5573 9.28625 13.4307 9.25852 13.2927C9.2315 13.1548 9.24501 13.0119 9.29905 12.8817C9.3531 12.7523 9.44412 12.6407 9.56074 12.5631C9.67808 12.4849 9.81532 12.443 9.95612 12.443C10.1446 12.443 10.3259 12.5176 10.4589 12.6513C10.5926 12.7843 10.6672 12.9656 10.6672 13.1541ZM10.6672 10.3096C10.6672 10.4504 10.6253 10.5877 10.5471 10.705C10.4695 10.8216 10.3579 10.9127 10.2285 10.9667C10.0983 11.0207 9.95541 11.0343 9.81745 11.0072C9.6795 10.9795 9.55292 10.9119 9.45336 10.8124C9.35381 10.7128 9.28625 10.5863 9.25852 10.4483C9.2315 10.3103 9.24501 10.1674 9.29905 10.0373C9.3531 9.90786 9.44412 9.79621 9.56074 9.7187C9.67808 9.64048 9.81532 9.59852 9.95612 9.59852C10.1446 9.59852 10.3259 9.67319 10.4589 9.80688C10.5926 9.93986 10.6672 10.1212 10.6672 10.3096Z" fill="#A540F3"/>
</svg>
