<svg width="32" height="32" viewBox="0 0 32 32" fill="none" xmlns="http://www.w3.org/2000/svg">
<path d="M24.1783 6.04297C24.9279 6.04297 25.5423 6.62324 25.597 7.35924L25.6006 7.46519V24.5319C25.6006 25.2814 25.0203 25.8958 24.2843 25.9498L24.1783 25.9541H7.11168C6.36216 25.9541 5.74776 25.3738 5.69301 24.6378L5.68945 24.5319V7.46519C5.68945 6.71568 6.26972 6.10128 7.00572 6.04652L7.11168 6.04297H24.1783ZM15.645 9.53808L13.4505 11.7319H7.11168V24.5319H12.8006V20.9763C12.8006 20.2268 13.3808 19.6124 14.1168 19.5576L14.2228 19.5541H17.0672C17.8167 19.5541 18.4311 20.1343 18.4859 20.8703L18.4895 20.9763V24.5319H24.1783V11.7319H17.8395L15.645 9.53808ZM17.0672 20.9763H14.2228V24.5319H17.0672V20.9763ZM21.3339 19.5541C21.7264 19.5541 22.045 19.8727 22.045 20.2652C22.045 20.6577 21.7264 20.9763 21.3339 20.9763C20.9414 20.9763 20.6228 20.6577 20.6228 20.2652C20.6228 19.8727 20.9414 19.5541 21.3339 19.5541ZM9.95612 19.5541C10.3487 19.5541 10.6672 19.8727 10.6672 20.2652C10.6672 20.6577 10.3487 20.9763 9.95612 20.9763C9.56359 20.9763 9.24501 20.6577 9.24501 20.2652C9.24501 19.8727 9.56359 19.5541 9.95612 19.5541ZM21.3339 16.7096C21.7264 16.7096 22.045 17.0282 22.045 17.4207C22.045 17.8133 21.7264 18.1319 21.3339 18.1319C20.9414 18.1319 20.6228 17.8133 20.6228 17.4207C20.6228 17.0282 20.9414 16.7096 21.3339 16.7096ZM9.95612 16.7096C10.3487 16.7096 10.6672 17.0282 10.6672 17.4207C10.6672 17.8133 10.3487 18.1319 9.95612 18.1319C9.56359 18.1319 9.24501 17.8133 9.24501 17.4207C9.24501 17.0282 9.56359 16.7096 9.95612 16.7096ZM21.3339 13.8652C21.7264 13.8652 22.045 14.1838 22.045 14.5763C22.045 14.9688 21.7264 15.2874 21.3339 15.2874C20.9414 15.2874 20.6228 14.9688 20.6228 14.5763C20.6228 14.1838 20.9414 13.8652 21.3339 13.8652ZM15.645 13.8652C16.0375 13.8652 16.3561 14.1838 16.3561 14.5763C16.3561 14.9688 16.0375 15.2874 15.645 15.2874C15.2525 15.2874 14.9339 14.9688 14.9339 14.5763C14.9339 14.1838 15.2525 13.8652 15.645 13.8652ZM9.95612 13.8652C10.3487 13.8652 10.6672 14.1838 10.6672 14.5763C10.6672 14.9688 10.3487 15.2874 9.95612 15.2874C9.56359 15.2874 9.24501 14.9688 9.24501 14.5763C9.24501 14.1838 9.56359 13.8652 9.95612 13.8652ZM24.1783 10.3096V7.46519H7.11168V10.3096H12.8603L14.6395 8.53186C15.1657 8.00564 16.0013 7.9779 16.5602 8.44866L16.6505 8.53186L18.429 10.3096H24.1783Z" fill="#A540F3"/>
</svg>
