<svg width="32" height="32" viewBox="0 0 32 32" fill="none" xmlns="http://www.w3.org/2000/svg">
<path d="M17.1776 6.24576L17.3021 6.36238L26.5977 15.4945L25.6007 16.5085L24.3207 15.2513L24.3214 24.8904C24.3214 25.6399 23.7412 26.2543 23.0052 26.3083L22.8992 26.3126H8.677C7.92749 26.3126 7.31309 25.7323 7.25834 24.9963L7.25478 24.8904L7.25407 15.252L5.97549 16.5085L4.97852 15.4945L14.2642 6.37162C15.0557 5.5638 16.3321 5.519 17.1776 6.24576ZM15.3387 7.31527L15.2704 7.37714L8.67629 13.8546L8.677 24.8904L12.2318 24.8897L12.2326 17.7793C12.2326 17.0298 12.8128 16.4154 13.5488 16.3606L13.6548 16.357H17.9214C18.671 16.357 19.2854 16.9373 19.3401 17.6733L19.3437 17.7793L19.343 24.8897L22.8992 24.8904L22.8985 13.8539L16.2859 7.35722C16.027 7.10336 15.6231 7.08771 15.3387 7.31527ZM17.9214 17.7793H13.6548L13.6541 24.8897H17.9207L17.9214 17.7793Z" fill="#A540F3"/>
</svg>
