<svg width="112" height="53" viewBox="0 0 112 53" fill="none" xmlns="http://www.w3.org/2000/svg">
<rect x="28.5674" y="0.387096" width="7.99874" height="9.0853" rx="2.70967" fill="#A540F3" stroke="#A540F3" stroke-width="0.774193"/>
<rect x="85.0057" y="2.58482" width="6.67724" height="8.585" rx="2.70967" transform="rotate(90 85.0057 2.58482)" fill="#A540F3" stroke="#A540F3" stroke-width="0.774193"/>
<path d="M15.7919 7.46708C16.3587 8.30302 17.4878 8.51351 18.3128 7.93918C19.0754 7.40694 19.7743 7.22201 20.3708 7.21149C20.9672 7.22201 21.6661 7.40694 22.4288 7.93918C23.2537 8.51351 24.3829 8.30303 24.9497 7.46708C25.4853 6.67775 25.3295 5.61478 24.6158 5.01338L24.6158 5.01187C23.8873 4.39845 22.5222 3.68429 20.8515 3.56702C20.8471 3.56702 20.8411 3.56702 20.8367 3.56551C20.7729 3.561 20.7106 3.55799 20.6467 3.55499C20.5755 3.55198 20.5058 3.55048 20.4361 3.54898C20.4183 3.54898 20.4019 3.54747 20.3841 3.54747C20.3797 3.54747 20.3767 3.54747 20.3723 3.54747C20.3678 3.54747 20.3648 3.54747 20.3604 3.54747C20.3426 3.54747 20.3263 3.54898 20.3085 3.54898C20.2387 3.54898 20.1675 3.55198 20.0978 3.55499C20.034 3.55799 19.9702 3.561 19.9078 3.56551C19.9034 3.56551 19.8974 3.56551 19.893 3.56702C18.2223 3.68279 16.8572 4.39845 16.1287 5.01187L16.1302 5.01338C15.412 5.61478 15.2547 6.67775 15.7919 7.46708Z" fill="#A540F3"/>
<path d="M100.509 44.6773C93.8149 44.6773 88.8195 38.0968 88.8195 28.9854C88.8195 18.8616 93.8649 11.7243 100.759 11.7243C107.253 11.7243 111.998 18.406 111.998 27.7199C111.998 37.6412 107.103 44.6773 100.509 44.6773ZM97.6115 23.9235C97.6115 33.0349 98.9103 38.5524 100.909 38.5524C102.257 38.5524 103.206 36.5276 103.206 32.5287C103.206 23.3161 101.908 17.7986 99.9094 17.7986C98.6106 17.7986 97.6115 19.874 97.6115 23.9235Z" fill="#A540F3"/>
<path d="M74.5561 16.5029C74.5561 14.8831 74.5542 12.3327 74.5542 12.3327H82.8986C84.8967 12.3327 85.7959 13.2439 85.7959 15.2686V35.668C85.7959 37.6422 87.2946 39.0916 88.0439 39.8509C88.0439 39.8509 88.0439 40.6287 88.0439 41.4892C88.0439 43.1596 88.0439 44.0708 88.0439 44.0708H74.5969C74.5969 44.0708 74.6061 43.1596 74.6061 41.4892C74.6061 40.6287 74.6025 39.8509 74.6025 39.8509C75.4018 39.0916 76.904 37.6422 76.904 35.668V20.7861C76.904 19.0144 76.6043 18.002 75.5552 17.0909C75.0818 16.6797 74.5561 16.5029 74.5561 16.5029Z" fill="#A540F3"/>
<path d="M65.3422 44.0721C60.9961 44.0721 59.4975 42.6042 59.4975 37.441C59.4975 34.8089 59.7972 31.5693 60.1469 27.9753C60.6464 23.4196 60.8463 21.901 60.8463 20.3825C60.8463 18.7627 60.17 18.7627 57.8989 18.7627L58.3955 14.4948C62.7655 12.0794 64.9469 7.62473 65.5464 6.81482C65.5464 6.81482 65.6419 6.81658 66.8408 6.81658C68.0897 6.81658 68.7891 6.81519 68.7891 6.81519V11.6254C68.7891 12.2328 68.9889 12.3341 69.6383 12.3341H72.2359V15.5737V18.7627H69.7882C68.9889 18.7627 68.6891 19.0157 68.6891 20.2306L68.7391 35.5681C68.7391 37.2386 68.9389 37.7954 70.5375 38.7571L72.3858 39.8555C72.3358 41.2223 72.3858 44.0721 72.3858 44.0721H65.3422Z" fill="#A540F3"/>
<path d="M46.8208 44.679C44.423 44.679 38.7933 42.3234 37.3446 41.4629L38.878 35.9726C38.8905 35.929 38.9032 35.8862 38.916 35.8441C39.2604 34.7114 39.7077 34.0997 40.5265 34.0997C41.4756 34.0997 42.1251 35.1121 43.4738 36.6812C44.7227 38.3517 45.9216 39.5665 47.1705 39.5665C48.2695 39.5665 49.0688 38.6554 49.0688 37.3393C49.0688 35.5676 47.9198 34.5046 44.9725 32.8342C40.4766 30.2526 38.2785 27.1143 38.2785 21.8499C38.2785 15.8769 42.4248 11.6249 47.9698 11.7261C50.1178 11.7767 51.6463 12.0766 53.5147 13.194C54.0702 13.5263 54.8244 14.0893 55.2217 14.4919L54.212 21.2931H53.215H52.4408C51.249 18.0727 48.7191 16.788 47.3703 16.788C46.2713 16.788 45.522 17.6485 45.522 18.8634C45.522 20.3819 46.5211 21.1918 49.4184 22.761C54.1142 25.3426 56.2622 28.6328 56.2622 33.8972C56.2622 40.1739 52.2159 44.679 46.8208 44.679Z" fill="#A540F3"/>
<path d="M38.916 35.8441C39.2604 34.7114 39.7077 34.0997 40.5265 34.0997H39.4319L38.916 35.8441Z" fill="#A540F3"/>
<path d="M40.5265 34.0997C41.4756 34.0997 42.1251 35.1121 43.4738 36.6812L41.3173 34.0997H40.5265Z" fill="#A540F3"/>
<path d="M11.241 35.6658C11.241 37.6399 12.7396 39.0894 13.489 39.8486V41.4869V44.0685H0.0419878C0.0419878 44.0685 0.051174 43.1574 0.051174 41.4869C0.051174 40.6264 0.0475928 39.8486 0.0475928 39.8486C0.846867 39.0894 2.34713 37.6367 2.34713 35.6625L2.34713 12.0235C2.34713 10.2518 0.995603 9.3622 -0.00349045 8.45106C-0.00349045 8.45106 -0.000741208 4.432 -0.000741208 3.57148C-0.000741208 3.57148 0.948397 3.57012 2.39708 3.57012H8.4416C10.3898 3.57012 11.2391 4.43064 11.2391 6.40478L11.241 35.6658Z" fill="#A540F3"/>
<path d="M14.278 52.9297H18.3876H25.3875C26.6874 52.9297 27.2874 52.4737 27.8374 51.2072C29.0874 48.5726 30.1374 46.0394 31.1874 42.037C32.2589 37.9724 33.2124 34.5446 33.9477 31.1948C34.6838 27.2854 35.0286 23.373 35.417 19.5422C35.517 18.2756 35.817 17.3636 36.367 16.553C36.767 15.9957 37.017 15.3371 37.017 14.3745C37.017 13.0572 36.167 12.1959 35.017 12.1959H30.3171C29.1672 12.1959 28.3172 13.2092 28.3172 14.5771C28.3172 15.6917 28.7672 16.3504 29.2672 17.009C29.8672 17.6676 30.0671 18.4782 29.9172 19.8968C29.7172 23.6966 28.9874 28.0538 28.2874 31.1443C28.0374 32.2589 27.2374 32.2082 27.0374 31.1949C26.2875 28.3071 25.5673 24.1526 25.0673 20.2008C24.8673 18.4276 25.1173 17.5156 25.7173 16.705C26.2172 16.1477 26.6172 15.5397 26.6172 14.6278C26.6172 13.2599 25.6673 12.1959 24.4173 12.1959H16.3675C15.1175 12.1959 14.1175 13.3612 14.1175 14.8304C14.1175 15.5904 14.2675 16.2997 14.7675 16.9077C15.3175 17.6169 15.5675 18.3262 15.7675 19.3902C16.4944 23.3272 17.2548 27.2265 18.2142 31.1443C19.167 35.0334 20.2429 38.9641 21.3875 42.7463C21.6875 43.7089 21.5875 44.4182 20.9875 45.1275L17.3376 49.4339L14.278 52.9297Z" fill="#A540F3"/>
</svg>
