<svg width="30" height="30" viewBox="0 0 30 30" fill="none" xmlns="http://www.w3.org/2000/svg">
<path d="M21.2312 0.5C17.3416 0.5 14.1848 3.65678 14.1848 7.54638C14.1848 11.436 17.3416 14.5928 21.2312 14.5928C25.1208 14.5928 28.2776 11.436 28.2776 7.54638C28.2776 3.65678 25.1208 0.5 21.2312 0.5ZM21.2312 11.7742C18.8918 11.7742 17.0034 9.88578 17.0034 7.54638C17.0034 5.20698 18.8918 3.31855 21.2312 3.31855C23.5706 3.31855 25.459 5.20698 25.459 7.54638C25.459 9.88578 23.5706 11.7742 21.2312 11.7742ZM25.459 20.2299H22.6405C22.6405 18.5387 21.5835 17.0167 20.0051 16.4248L11.324 13.1835H0.092041V28.6855H8.5477V26.6562L18.4126 29.3902L29.6869 25.867V24.4577C29.6869 22.1183 27.7984 20.2299 25.459 20.2299ZM5.72915 25.867H2.91059V16.002H5.72915V25.867ZM18.3704 26.4448L8.5477 23.7531V16.002H10.8166L19.0186 19.0602C19.4978 19.2434 19.8219 19.7084 19.8219 20.2299C19.8219 20.2299 17.0034 20.1594 16.5806 20.0185L13.2265 18.9052L12.3387 21.5828L15.6927 22.6961C16.4115 22.9357 17.1584 23.0484 17.9194 23.0484H25.459C26.0086 23.0484 26.5019 23.3867 26.7274 23.8517L18.3704 26.4448Z" fill="black"/>
</svg>
