<svg width="22" height="23" viewBox="0 0 22 23" fill="none" xmlns="http://www.w3.org/2000/svg">
<path d="M7.93451 16.6045C5.71641 16.6045 3.83937 15.8007 2.30339 14.193C0.767412 12.5854 -0.000985911 10.6218 -0.00179989 8.30227C-0.00261387 5.98274 0.765784 4.01915 2.30339 2.41149C3.841 0.80383 5.71804 0 7.93451 0C10.151 0 12.0284 0.80383 13.5668 2.41149C15.1053 4.01915 15.8733 5.98274 15.8708 8.30227C15.8708 9.23893 15.7284 10.1224 15.4435 10.9526C15.1586 11.7828 14.7719 12.5173 14.2836 13.1559L21.121 20.3086C21.3448 20.5428 21.4568 20.8408 21.4568 21.2027C21.4568 21.5646 21.3448 21.8626 21.121 22.0968C20.8971 22.331 20.6123 22.4481 20.2663 22.4481C19.9204 22.4481 19.6355 22.331 19.4116 22.0968L12.5742 14.9441C11.9637 15.455 11.2617 15.8595 10.468 16.1575C9.67439 16.4555 8.82989 16.6045 7.93451 16.6045ZM7.93451 14.05C9.46072 14.05 10.7582 13.4914 11.827 12.3742C12.8957 11.257 13.4297 9.89971 13.4289 8.30227C13.4281 6.70483 12.8941 5.34794 11.827 4.2316C10.7598 3.11527 9.46235 2.55625 7.93451 2.55454C6.40667 2.55284 5.10959 3.11186 4.04328 4.2316C2.97696 5.35134 2.44258 6.70823 2.44014 8.30227C2.4377 9.8963 2.97208 11.2536 4.04328 12.3742C5.11447 13.4948 6.41155 14.0534 7.93451 14.05Z" fill="black"/>
</svg>
