<svg width="24" height="25" viewBox="0 0 24 25" fill="none" xmlns="http://www.w3.org/2000/svg">
<path fill-rule="evenodd" clip-rule="evenodd" d="M9.29303 7.79303C9.48056 7.60556 9.73487 7.50024 10 7.50024C10.2652 7.50024 10.5195 7.60556 10.707 7.79303L14.707 11.793C14.8945 11.9806 14.9998 12.2349 14.9998 12.5C14.9998 12.7652 14.8945 13.0195 14.707 13.207L10.707 17.207C10.5184 17.3892 10.2658 17.49 10.0036 17.4877C9.74143 17.4854 9.49062 17.3803 9.30521 17.1948C9.1198 17.0094 9.01464 16.7586 9.01236 16.4964C9.01008 16.2342 9.11087 15.9816 9.29303 15.793L12.586 12.5L9.29303 9.20703C9.10556 9.0195 9.00024 8.76519 9.00024 8.50003C9.00024 8.23487 9.10556 7.98056 9.29303 7.79303Z" fill="black"/>
</svg>
