<svg width="24" height="24" viewBox="0 0 24 24" fill="none" xmlns="http://www.w3.org/2000/svg">
<path d="M17.6562 5.30377C14.5322 2.23077 9.46716 2.23077 6.34316 5.30377C5.60145 6.02841 5.01207 6.894 4.60968 7.84968C4.20729 8.80536 4 9.83184 4 10.8688C4 11.9057 4.20729 12.9322 4.60968 13.8879C5.01207 14.8435 5.60145 15.7091 6.34316 16.4338L11.9992 21.9988L17.6562 16.4338C18.3979 15.7091 18.9873 14.8435 19.3897 13.8879C19.792 12.9322 19.9993 11.9057 19.9993 10.8688C19.9993 9.83184 19.792 8.80536 19.3897 7.84968C18.9873 6.894 18.3979 6.02841 17.6562 5.30377ZM11.9992 13.4988C11.3312 13.4988 10.7042 13.2388 10.2312 12.7668C9.76292 12.2975 9.49994 11.6617 9.49994 10.9988C9.49994 10.3359 9.76292 9.70002 10.2312 9.23077C10.7032 8.75877 11.3312 8.49877 11.9992 8.49877C12.6672 8.49877 13.2952 8.75877 13.7672 9.23077C14.2354 9.70002 14.4984 10.3359 14.4984 10.9988C14.4984 11.6617 14.2354 12.2975 13.7672 12.7668C13.2952 13.2388 12.6672 13.4988 11.9992 13.4988Z" fill="#A540F3"/>
</svg>
