<svg width="32" height="32" viewBox="0 0 32 32" fill="none" xmlns="http://www.w3.org/2000/svg">
<path d="M15.458 6.59823C15.7175 6.47734 15.9984 6.4105 16.2843 6.40054C16.5702 6.3913 16.8553 6.43894 17.122 6.54134L17.2543 6.59823L26.2 10.7511C26.429 10.8578 26.6253 11.0235 26.7689 11.2311C26.9133 11.4388 26.9993 11.6798 27.0185 11.9316L27.0228 12.0418V14.077C27.0228 14.1922 26.9951 14.306 26.941 14.4084C26.887 14.5108 26.8095 14.5982 26.7142 14.6637C26.919 15.1721 27.0228 15.6891 27.0228 16.2103C27.0228 16.8717 26.8557 17.5237 26.5293 18.1645L26.4283 18.3529L26.4937 18.483C26.8201 19.1707 26.9929 19.987 27.0192 20.9278L27.0228 21.1881C27.0228 22.4638 26.7682 23.7374 26.2612 25.0061C26.2143 25.1248 26.136 25.2286 26.0343 25.3061C25.9334 25.3844 25.8132 25.4334 25.6866 25.4491L25.6006 25.4548H7.11168C6.97941 25.4548 6.84999 25.4171 6.73763 25.3474C6.62599 25.2784 6.53496 25.1789 6.47594 25.0608C5.9483 24.0055 5.68945 22.7134 5.68945 21.1881C5.68945 19.9927 5.8459 19.0676 6.19434 18.4098L6.25621 18.301L6.18296 18.1645C5.88928 17.5877 5.7243 17.0011 5.69443 16.408L5.68945 16.2103C5.68945 15.6891 5.79328 15.1714 5.99736 14.6622C5.91488 14.6053 5.84519 14.5321 5.79328 14.4461C5.74136 14.3607 5.70794 14.2654 5.69514 14.1659L5.68945 14.077V12.0418C5.68945 11.7893 5.75701 11.5412 5.8843 11.3229C6.01159 11.1053 6.19505 10.9253 6.41479 10.8016L6.51292 10.7525L15.458 6.59823ZM25.4768 22.6103H7.20839C7.27381 23.0626 7.37336 23.4757 7.50563 23.8519L7.5739 24.0325H25.1056L25.1597 23.8782C25.2983 23.4544 25.4043 23.032 25.4775 22.6103H25.4768ZM18.4895 14.7881H14.2228V21.1881H18.4895V14.7881ZM25.2023 14.7881H19.9117V21.1881H25.6006C25.6006 20.3134 25.4605 19.6045 25.1903 19.0548H21.3339V17.6325H25.2023C25.4704 17.1461 25.6006 16.674 25.6006 16.2103C25.6006 15.7467 25.4704 15.2745 25.2023 14.7881ZM12.8006 14.7881H7.5099C7.24252 15.2752 7.11168 15.7481 7.11168 16.2103C7.11168 16.6725 7.24181 17.1461 7.5099 17.6325H11.3783V19.0548H7.46225C7.24465 19.4459 7.11168 20.1598 7.11168 21.1881H12.8006V14.7881ZM16.3561 16.2103C16.5446 16.2103 16.7259 16.285 16.8589 16.4187C16.9926 16.5517 17.0672 16.733 17.0672 16.9214C17.0672 17.1099 16.9926 17.2912 16.8589 17.4242C16.7259 17.5579 16.5446 17.6325 16.3561 17.6325C16.1677 17.6325 15.9863 17.5579 15.8534 17.4242C15.7197 17.2912 15.645 17.1099 15.645 16.9214C15.645 16.733 15.7197 16.5517 15.8534 16.4187C15.9863 16.285 16.1677 16.2103 16.3561 16.2103ZM16.6555 7.88819C16.4941 7.81281 16.3099 7.80214 16.1399 7.85619L16.0567 7.88819L7.11168 12.0418V13.3659H25.6006V12.0418L16.6555 7.88819Z" fill="#A540F3"/>
</svg>
